#!OML:ASF X:\für Bonn\!DataBase\2005_08_12_Daniel\c3d\Daniel.ASF
:FULLY-SPECIFIED
:DEGREES
340
root 2.18861 16.889 -0.965428 23.3648 -88.8158 -35.6473
lowerback 20.22 -1.17347 6.35578
upperback 4.1934 -0.507423 -0.446141
thorax -6.78525 -0.476138 -3.96595
lowerneck -0.501292 0.908294 3.20687
upperneck 9.70696 1.26072 -3.38183
head 3.26526 0.566442 -1.63281
rclavicle 1.09332e-015 -7.55382e-015
rhumerus -33.0225 26.5621 -100.88
rradius 57.9613
rwrist 13.9171
rhand -14.2673 377.405
rfingers 7.12502
rthumb 11.8714 347.761
lclavicle 1.09332e-015 -7.55382e-015
lhumerus -227.105 202.984 -72.6114
lradius 84.3442
lwrist 1.16447
lhand 33.0761 8.70177
lfingers 7.12502
lthumb 56.4492 25.7376
rfemur 4.6058 24.6227 27.627
rtibia 32.2362
rfoot 324.855 -26.6148
rtoes -6.73963
lfemur -18.8549 -7.82692 -8.36035
ltibia 57.5666
lfoot -6.52353 6.33869
ltoes -6.64219
341
root 2.20658 16.899 -0.94972 15.2174 -88.5954 -27.4915
lowerback 20.2488 -1.27478 6.32878
upperback 4.22933 -0.647032 -0.449553
thorax -6.77726 -0.542975 -3.91808
lowerneck -0.493855 0.934992 3.35086
upperneck 9.79202 1.30462 -3.54602
head 3.29967 0.586614 -1.71305
rclavicle -1.16786e-015 1.37161e-014
rhumerus -33.4042 26.2807 -100.758
rradius 57.3046
rwrist 14.9154
rhand -13.9944 377.598
rfingers 7.12502
rthumb 12.1345 347.97
lclavicle -1.16786e-015 1.37161e-014
lhumerus -227.167 203.086 -72.5632
lradius 83.9319
lwrist 0.741297
lhand 32.9188 8.10407
lfingers 7.12502
lthumb 56.3102 25.2507
rfemur 4.54969 24.4447 27.4123
rtibia 32.156
rfoot 325.011 -26.7192
rtoes -6.79645
lfemur -18.7486 -8.017 -8.5604
ltibia 57.211
lfoot -6.75218 6.27632
ltoes -6.35598
342
root 2.22584 16.9105 -0.932907 9.97186 -88.37 -22.235
lowerback 20.2308 -1.36449 6.29502
upperback 4.31105 -0.779343 -0.445409
thorax -6.69321 -0.603652 -3.86015
lowerneck -0.565699 0.95838 3.48587
upperneck 9.90528 1.34183 -3.691
head 3.35841 0.603354 -1.78625
rclavicle -5.26779e-015 2.78299e-015
rhumerus -33.6519 25.9668 -100.56
rradius 56.5401
rwrist 15.9924
rhand -13.8464 377.741
rfingers 7.12502
rthumb 12.2772 348.121
lclavicle -5.26779e-015 2.78299e-015
lhumerus -227.109 203.25 -72.5212
lradius 83.4823
lwrist 0.392502
lhand 32.6858 7.59221
lfingers 7.12502
lthumb 56.1041 24.901
rfemur 4.49605 24.2651 27.1995
rtibia 32.0521
rfoot 325.202 -26.8072
rtoes -6.86318
lfemur -18.6188 -8.18567 -8.74812
ltibia 56.8163
lfoot -6.93935 6.12563
ltoes -6.07963
343
root 2.24618 16.9253 -0.914338 5.05954 -88.1618 -17.3083
lowerback 20.2234 -1.44217 6.22769
upperback 4.37173 -0.901704 -0.461888
thorax -6.63653 -0.659982 -3.80814
lowerneck -0.58844 0.986701 3.67625
upperneck 10.0406 1.38377 -3.83137
head 3.41689 0.624543 -1.86819
rclavicle 1.19271e-015 1.23246e-014
rhumerus -33.8966 25.5639 -100.34
rradius 55.6979
rwrist 17.1154
rhand -13.822 377.925
rfingers 7.12502
rthumb 12.3008 348.307
lclavicle 1.19271e-015 1.23246e-014
lhumerus -227.094 203.413 -72.4276
lradius 83.0051
lwrist 0.0141537
lhand 32.3454 7.11144
lfingers 7.12502
lthumb 55.8023 24.6535
rfemur 4.4224 23.9769 26.881
rtibia 31.9215
rfoot 325.537 -26.8248
rtoes -7.06369
lfemur -18.4568 -8.36694 -8.98476
ltibia 56.3717
lfoot -7.14067 5.9197
ltoes -5.97708
344
root 2.26957 16.9398 -0.89361 1.91598 -87.9877 -14.1664
lowerback 20.2619 -1.51895 6.14452
upperback 4.42044 -1.02036 -0.446888
thorax -6.61594 -0.715607 -3.71347
lowerneck -0.577252 1.02933 3.773
upperneck 10.1749 1.4444 -3.92054
head 3.46739 0.653366 -1.91549
rclavicle 3.42904e-015 1.61016e-014
rhumerus -34.1239 25.1587 -100.062
rradius 54.816
rwrist 18.343
rhand -13.8856 378.016
rfingers 7.12502
rthumb 12.2394 348.394
lclavicle 3.42904e-015 1.61016e-014
lhumerus -227.098 203.529 -72.2913
lradius 82.6057
lwrist -0.323196
lhand 31.8506 6.65219
lfingers 7.12502
lthumb 55.3626 24.5253
rfemur 4.3365 23.6607 26.548
rtibia 31.785
rfoot 325.919 -26.7398
rtoes -7.11441
lfemur -18.2455 -8.51592 -9.19927
ltibia 55.8784
lfoot -7.29954 5.58599
ltoes -5.99088
345
root 2.29441 16.9562 -0.871044 -1.29931 -87.8731 -10.9378
lowerback 20.2604 -1.56469 6.04132
upperback 4.49077 -1.10847 -0.454366
thorax -6.54698 -0.754758 -3.64016
lowerneck -0.511099 1.06212 3.89008
upperneck 10.235 1.48964 -3.97795
head 3.48085 0.677596 -1.95528
rclavicle 1.4561e-014 8.34896e-015
rhumerus -34.2467 24.5833 -99.7237
rradius 53.8908
rwrist 19.6528
rhand -13.9467 378.104
rfingers 7.12502
rthumb 12.1805 348.479
lclavicle 1.4561e-014 8.34896e-015
lhumerus -227.013 203.684 -72.1587
lradius 82.1474
lwrist -0.63715
lhand 31.332 6.19404
lfingers 7.12502
lthumb 54.9003 24.4046
rfemur 4.18906 23.2352 26.106
rtibia 31.6454
rfoot 326.474 -26.5808
rtoes -7.26051
lfemur -18.0169 -8.60481 -9.44054
ltibia 55.3282
lfoot -7.41254 5.2088
ltoes -6.01764
346
root 2.32388 16.9727 -0.845622 -4.457 -87.7903 -7.77594
lowerback 20.3116 -1.60254 5.91958
upperback 4.54397 -1.18631 -0.470642
thorax -6.52318 -0.790338 -3.56791
lowerneck -0.391596 1.09361 4.03536
upperneck 10.3053 1.53306 -4.03591
head 3.48829 0.70203 -2.00053
rclavicle 4.91992e-015 -2.48481e-014
rhumerus -34.3667 23.9408 -99.3594
rradius 52.9618
rwrist 20.9608
rhand -14.0574 378.115
rfingers 7.12502
rthumb 12.0738 348.483
lclavicle 4.91992e-015 -2.48481e-014
lhumerus -226.951 203.846 -72.0163
lradius 81.7115
lwrist -0.959387
lhand 30.7076 5.69749
lfingers 7.12502
lthumb 54.342 24.3016
rfemur 4.01717 22.7988 25.6206
rtibia 31.5222
rfoot 327.081 -26.3592
rtoes -7.48971
lfemur -17.7573 -8.67808 -9.69331
ltibia 54.7334
lfoot -7.50626 4.75845
ltoes -6.03592
347
root 2.35597 16.9892 -0.818352 -6.77172 -87.7602 -5.46211
lowerback 20.3751 -1.63258 5.82314
upperback 4.60735 -1.24896 -0.483118
thorax -6.49304 -0.819047 -3.5098
lowerneck -0.275242 1.13321 4.12826
upperneck 10.3537 1.5839 -4.02973
head 3.48705 0.730763 -2.01408
rclavicle 1.98785e-015 -7.55382e-015
rhumerus -34.4372 23.199 -98.9422
rradius 52.0516
rwrist 22.2626
rhand -14.1178 378.122
rfingers 7.12502
rthumb 12.0155 348.487
lclavicle 1.98785e-015 -7.55382e-015
lhumerus -226.87 204.023 -71.8821
lradius 81.2988
lwrist -1.30214
lhand 29.9414 5.12669
lfingers 7.12502
lthumb 53.6542 24.1958
rfemur 3.79457 22.2556 25.0972
rtibia 31.4182
rfoot 327.803 -26.0047
rtoes -7.73779
lfemur -17.4641 -8.76241 -9.90805
ltibia 54.1017
lfoot -7.57546 4.26581
ltoes -5.63331
348
root 2.38823 17.0046 -0.790444 -9.15315 -87.7322 -3.07737
lowerback 20.4268 -1.65457 5.68151
upperback 4.65678 -1.30888 -0.480652
thorax -6.47049 -0.845882 -3.41037
lowerneck -0.0875682 1.17397 4.20301
upperneck 10.394 1.63751 -4.01436
head 3.46918 0.760707 -2.02094
rclavicle -7.45443e-017 -4.57205e-015
rhumerus -34.486 22.4219 -98.4673
rradius 51.1032
rwrist 23.4508
rhand -14.1591 378.192
rfingers 7.12502
rthumb 11.9757 348.555
lclavicle -7.45443e-017 -4.57205e-015
lhumerus -226.786 204.168 -71.7214
lradius 80.9043
lwrist -1.6445
lhand 29.0877 4.61971
lfingers 7.12502
lthumb 52.8849 24.1847
rfemur 3.55399 21.7185 24.5754
rtibia 31.3478
rfoot 328.532 -25.6559
rtoes -7.9779
lfemur -17.1505 -8.82673 -10.129
ltibia 53.4675
lfoot -7.60816 3.64688
ltoes -5.13867
349
root 2.4228 17.0188 -0.760969 -11.3624 -87.7196 -0.866922
lowerback 20.4832 -1.67423 5.55473
upperback 4.70901 -1.36346 -0.486916
thorax -6.44697 -0.870513 -3.33021
lowerneck 0.136399 1.20947 4.28829
upperneck 10.4186 1.68359 -3.98624
head 3.43865 0.788009 -2.02545
rclavicle -6.4605e-015 -2.66371e-014
rhumerus -34.506 21.5944 -97.9795
rradius 50.1883
rwrist 24.4303
rhand -14.1454 378.258
rfingers 7.12502
rthumb 11.9889 348.622
lclavicle -6.4605e-015 -2.66371e-014
lhumerus -226.719 204.331 -71.5675
lradius 80.5228
lwrist -2.10848
lhand 28.1536 4.03661
lfingers 7.12502
lthumb 52.0395 24.1187
rfemur 3.29984 21.2342 24.0699
rtibia 31.3072
rfoot 329.233 -25.3261
rtoes -8.17781
lfemur -16.8294 -8.83704 -10.3487
ltibia 52.8531
lfoot -7.60725 2.92273
ltoes -4.77396
350
root 2.45807 17.0319 -0.730202 -13.4396 -87.7015 1.21562
lowerback 20.5213 -1.69699 5.40081
upperback 4.76781 -1.42808 -0.47494
thorax -6.40648 -0.899231 -3.21243
lowerneck 0.330861 1.24919 4.31273
upperneck 10.4555 1.73265 -3.9126
head 3.41622 0.815755 -2.00366
rclavicle -1.10822e-014 7.95139e-015
rhumerus -34.4793 20.8565 -97.444
rradius 49.253
rwrist 25.1923
rhand -14.0913 378.347
rfingers 7.12502
rthumb 12.0411 348.713
lclavicle -1.10822e-014 7.95139e-015
lhumerus -226.619 204.459 -71.4005
lradius 80.091
lwrist -2.66738
lhand 27.0607 3.3793
lfingers 7.12502
lthumb 51.046 24.035
rfemur 3.00553 20.6608 23.5331
rtibia 31.311
rfoot 329.952 -24.8876
rtoes -8.3919
lfemur -16.4909 -8.82787 -10.5787
ltibia 52.277
lfoot -7.60986 1.94875
ltoes -4.50806
351
root 2.49365 17.0442 -0.698133 -15.5808 -87.7073 3.36941
lowerback 20.5402 -1.71034 5.26649
upperback 4.82267 -1.47898 -0.49223
thorax -6.35961 -0.921527 -3.14142
lowerneck 0.584462 1.27613 4.42555
upperneck 10.4754 1.76597 -3.8655
head 3.37822 0.838416 -2.00724
rclavicle 2.98177e-016 -1.98785e-015
rhumerus -34.432 20.011 -96.9314
rradius 48.3128
rwrist 25.813
rhand -14.0397 378.505
rfingers 7.12502
rthumb 12.0908 348.874
lclavicle 2.98177e-016 -1.98785e-015
lhumerus -226.538 204.634 -71.269
lradius 79.6759
lwrist -3.30306
lhand 25.8675 2.74338
lfingers 7.12502
lthumb 49.9564 23.989
rfemur 2.69066 20.1828 23.0217
rtibia 31.3502
rfoot 330.677 -24.5144
rtoes -8.5759
lfemur -16.1431 -8.82094 -10.8209
ltibia 51.7477
lfoot -7.58742 0.710119
ltoes -3.94697
352
root 2.53065 17.0532 -0.664957 -17.3166 -87.7298 5.08599
lowerback 20.5914 -1.73123 5.09898
upperback 4.89868 -1.54441 -0.467975
thorax -6.30606 -0.950766 -3.00238
lowerneck 0.795633 1.32408 4.41338
upperneck 10.4912 1.8261 -3.77449
head 3.34493 0.870817 -1.97262
rclavicle 5.51627e-015 -1.15295e-014
rhumerus -34.3692 19.3741 -96.3804
rradius 47.4465
rwrist 26.1297
rhand -13.8867 378.578
rfingers 7.12502
rthumb 12.2383 348.956
lclavicle 5.51627e-015 -1.15295e-014
lhumerus -226.392 204.763 -71.1154
lradius 79.2384
lwrist -4.02515
lhand 24.5703 2.04471
lfingers 7.12502
lthumb 48.7664 23.8919
rfemur 2.38224 19.6539 22.5246
rtibia 31.4179
rfoot 331.421 -24.077
rtoes -8.91708
lfemur -15.7546 -8.77532 -11.0332
ltibia 51.2676
lfoot -7.50914 -0.858274
ltoes -3.49853
